# xmcd
#
# Track frame offsets: 
#        150
#        13463
#        30564
#        42533
#        55724
#        72313
#        88445
#        105414
#        118296
#        131143
#        146183
#        159601
#        177296
#
# Disc length: 2607 seconds
#
# Revision: 0
# Processed by: cddbd v1.5.2PL0 Copyright (c) Steve Scherf et al.
# Submitted via: ExactAudioCopy v0.95b4
#
DISCID=c60a2d0d
DTITLE=Gal Holiday and the Honky Tonk Revue - Set Two
DYEAR=2010
DGENRE=Country
TTITLE0=Yes Ma'am, He Found Me in a Honky Tonk
TTITLE1=Brain Cloudy Blues
TTITLE2=Let the Teardrops Fall
TTITLE3=There Stands the Glass
TTITLE4=Don't Think Twice
TTITLE5=Jones on the Jukebox
TTITLE6=Louisiana Waltz
TTITLE7=Send Me Away
TTITLE8=Six Packto Go
TTITLE9=Sittin' on Top of the World
TTITLE10=I'm Coming Home
TTITLE11=That's Why I Ride
TTITLE12=Plastic Jesus
EXTD=
EXTT0=
EXTT1=
EXTT2=
EXTT3=
EXTT4=
EXTT5=
EXTT6=
EXTT7=
EXTT8=
EXTT9=
EXTT10=
EXTT11=
EXTT12=
PLAYORDER=
